<?xml version="1.0" standalone="no"?>
<!DOCTYPE svg PUBLIC "-//W3C//DTD SVG 20010904//EN"
 "http://www.w3.org/TR/2001/REC-SVG-20010904/DTD/svg10.dtd">
<svg version="1.0" xmlns="http://www.w3.org/2000/svg"
 width="726.000000pt" height="466.000000pt" viewBox="0 0 726.000000 466.000000"
 preserveAspectRatio="xMidYMid meet">

<g transform="translate(0.000000,466.000000) scale(0.100000,-0.100000)"
fill="#000000" stroke="none">
<path d="M2541 4137 l-473 -272 -219 -379 c-121 -208 -219 -380 -219 -382 0
-3 70 -3 156 -2 l156 3 163 280 162 280 409 237 409 238 475 0 475 0 409 -238
409 -237 162 -280 162 -280 157 -3 c86 -1 156 -1 156 2 0 2 -99 174 -219 382
l-219 379 -473 273 -473 272 -546 0 -546 0 -473 -273z"/>
<path d="M2815 3667 l-350 -202 -102 -175 c-56 -96 -102 -178 -103 -182 0 -5
69 -8 154 -8 l155 0 47 84 48 84 281 163 280 164 317 3 c265 2 323 0 353 -12
20 -9 154 -84 299 -167 l262 -151 48 -84 47 -84 155 0 c85 0 154 3 153 8 0 4
-46 86 -103 182 l-102 175 -349 202 -350 203 -395 0 -395 0 -350 -203z"/>
<path d="M2534 2980 c-12 -4 -31 -21 -43 -36 -21 -26 -21 -33 -21 -436 0 -462
-1 -455 73 -489 52 -23 66 -23 117 -3 29 12 46 27 60 55 19 36 20 61 20 426 0
357 -1 391 -18 422 -32 59 -122 88 -188 61z m100 -88 c15 -17 16 -56 14 -403
l-3 -383 -28 -16 c-27 -14 -29 -14 -48 9 -19 23 -20 38 -17 408 3 328 5 385
18 393 23 15 45 12 64 -8z"/>
<path d="M2605 2870 c20 -22 31 -20 22 5 -4 8 -14 15 -23 15 -16 0 -16 -2 1
-20z"/>
<path d="M2570 2862 c0 -5 14 -21 30 -37 35 -34 39 -26 8 15 -21 29 -38 39
-38 22z"/>
<path d="M2570 2812 c0 -19 59 -80 60 -61 0 8 -13 28 -30 44 -16 16 -30 23
-30 17z"/>
<path d="M2570 2752 c0 -5 14 -21 30 -37 21 -20 30 -24 30 -14 0 9 -10 25 -23
37 -24 23 -37 28 -37 14z"/>
<path d="M2570 2704 c0 -6 14 -23 30 -39 17 -16 30 -24 30 -19 0 6 -13 23 -30
39 -16 16 -30 24 -30 19z"/>
<path d="M2570 2652 c0 -19 59 -80 60 -61 0 8 -13 28 -30 44 -16 16 -30 23
-30 17z"/>
<path d="M2570 2592 c0 -5 14 -21 30 -37 21 -20 30 -24 30 -14 0 9 -10 25 -23
37 -24 23 -37 28 -37 14z"/>
<path d="M2570 2544 c0 -6 14 -23 30 -39 17 -16 30 -24 30 -19 0 6 -13 23 -30
39 -16 16 -30 24 -30 19z"/>
<path d="M2570 2489 c0 -9 14 -28 30 -44 21 -20 30 -24 30 -14 0 9 -13 28 -30
44 -21 20 -30 24 -30 14z"/>
<path d="M2570 2432 c0 -5 14 -21 30 -37 21 -20 30 -24 30 -14 0 9 -10 25 -23
37 -24 23 -37 28 -37 14z"/>
<path d="M2570 2384 c0 -6 14 -23 30 -39 17 -16 30 -24 30 -19 0 6 -13 23 -30
39 -16 16 -30 24 -30 19z"/>
<path d="M2570 2329 c0 -9 14 -28 30 -44 21 -20 30 -24 30 -14 0 9 -13 28 -30
44 -21 20 -30 24 -30 14z"/>
<path d="M2570 2272 c0 -5 14 -21 30 -37 21 -20 30 -24 30 -14 0 9 -10 25 -23
37 -24 23 -37 28 -37 14z"/>
<path d="M2570 2224 c0 -6 14 -23 30 -39 17 -16 30 -24 30 -19 0 6 -13 23 -30
39 -16 16 -30 24 -30 19z"/>
<path d="M2570 2169 c0 -20 46 -63 54 -51 3 5 -8 22 -24 37 -21 20 -30 24 -30
14z"/>
<path d="M6390 2984 c0 -5 20 -30 45 -54 25 -24 45 -40 45 -34 0 5 -20 30 -45
54 -25 24 -45 40 -45 34z"/>
<path d="M560 2495 l0 -485 100 0 100 0 0 40 0 40 -55 0 -55 0 0 185 0 185 55
0 55 0 0 40 0 40 -55 0 -55 0 0 180 0 180 55 0 55 0 0 40 0 40 -100 0 -100 0
0 -485z"/>
<path d="M1015 2958 c3 -13 20 -111 39 -219 l35 -196 -39 -259 c-22 -142 -40
-262 -40 -266 0 -5 20 -8 45 -8 25 0 45 4 45 9 0 17 60 425 63 428 2 1 16 -93
31 -210 16 -116 30 -215 33 -219 8 -14 83 -9 83 5 0 6 -17 127 -38 267 l-38
255 37 195 c49 254 49 242 -3 238 l-42 -3 -17 -95 c-9 -52 -22 -128 -29 -169
-7 -44 -15 -69 -20 -60 -4 8 -15 64 -24 124 -10 61 -22 131 -28 158 l-10 47
-44 0 c-41 0 -44 -2 -39 -22z"/>
<path d="M1570 2495 l0 -485 45 0 45 0 0 225 0 225 39 0 c46 0 100 33 121 75
11 22 16 73 18 182 3 128 1 157 -14 188 -27 59 -64 75 -166 75 l-88 0 0 -485z
m160 385 c18 -18 20 -33 20 -157 0 -76 -4 -143 -8 -149 -10 -15 -47 -34 -66
-34 -14 0 -16 23 -16 180 l0 180 25 0 c14 0 34 -9 45 -20z"/>
<path d="M1701 2854 c13 -14 25 -20 27 -14 5 15 -17 40 -36 40 -12 0 -10 -6 9
-26z"/>
<path d="M1680 2838 c0 -8 11 -25 25 -38 14 -13 25 -20 25 -16 0 5 -11 21 -25
38 -14 16 -25 23 -25 16z"/>
<path d="M1680 2782 c0 -6 11 -24 25 -39 17 -20 24 -23 25 -12 0 8 -11 26 -25
39 -14 13 -25 18 -25 12z"/>
<path d="M1680 2728 c0 -8 11 -25 25 -38 18 -17 25 -20 25 -8 0 8 -11 25 -25
38 -18 17 -25 20 -25 8z"/>
<path d="M1680 2678 c0 -8 11 -25 25 -38 14 -13 25 -20 25 -16 0 5 -11 21 -25
38 -14 16 -25 23 -25 16z"/>
<path d="M1680 2618 c0 -19 36 -52 44 -40 3 5 -6 20 -19 32 -19 18 -25 20 -25
8z"/>
<path d="M2060 2495 l0 -485 100 0 100 0 0 40 0 40 -55 0 -55 0 0 445 0 445
-45 0 -45 0 0 -485z"/>
<path d="M2990 2495 l0 -485 45 0 45 0 0 220 0 220 30 0 c17 0 39 -9 50 -20
18 -18 20 -33 20 -195 0 -210 4 -225 67 -225 38 0 43 2 35 18 -5 9 -12 105
-14 213 -5 212 -11 239 -60 255 l-23 7 22 8 c49 18 58 51 58 219 0 107 -4 165
-13 187 -20 47 -63 63 -171 63 l-91 0 0 -485z m172 378 c16 -14 18 -33 18
-150 0 -129 -1 -135 -25 -158 -13 -14 -36 -25 -50 -25 l-25 0 0 175 0 175 32
0 c17 0 40 -7 50 -17z"/>
<path d="M3100 2864 c1 -17 60 -79 60 -63 0 8 -13 28 -30 44 -16 16 -30 25
-30 19z"/>
<path d="M3100 2809 c0 -9 14 -28 30 -44 21 -20 30 -24 30 -14 0 9 -13 28 -30
44 -21 20 -30 24 -30 14z"/>
<path d="M3100 2759 c0 -8 14 -28 30 -44 39 -37 39 -20 0 25 -19 23 -29 29
-30 19z"/>
<path d="M3100 2699 c0 -9 14 -28 30 -44 21 -20 30 -24 30 -14 0 9 -13 28 -30
44 -21 20 -30 24 -30 14z"/>
<path d="M3100 2649 c0 -20 46 -63 54 -51 3 5 -8 22 -24 37 -21 20 -30 24 -30
14z"/>
<path d="M3100 2592 c0 -5 7 -15 15 -22 8 -7 15 -8 15 -2 0 5 -7 15 -15 22 -8
7 -15 8 -15 2z"/>
<path d="M3530 2495 l0 -486 98 3 97 3 3 38 3 37 -60 0 -61 0 0 185 0 185 61
0 60 0 -3 38 -3 37 -57 3 -58 3 0 179 0 179 58 3 57 3 3 38 3 37 -100 0 -101
0 0 -485z"/>
<path d="M4372 2498 l3 -483 43 -3 42 -3 0 485 0 486 -45 0 -45 0 2 -482z"/>
<path d="M4720 2495 l0 -485 40 0 40 0 0 377 c0 207 2 374 5 372 4 -5 75 -695
75 -733 0 -13 13 -16 70 -16 l70 0 0 485 0 485 -40 0 -40 0 0 -362 c0 -199 -2
-359 -4 -357 -2 2 -18 155 -35 339 -18 184 -34 345 -37 358 -4 20 -10 22 -74
22 l-70 0 0 -485z"/>
<path d="M5280 2495 l0 -487 104 4 c94 3 107 5 130 27 15 14 29 43 35 73 16
71 14 743 -2 787 -21 59 -54 75 -167 79 l-100 4 0 -487z m166 391 c18 -14 19
-30 19 -390 0 -265 -3 -378 -11 -386 -6 -6 -30 -14 -53 -17 l-41 -6 0 407 0
406 33 0 c18 0 42 -6 53 -14z"/>
<path d="M5412 2853 c15 -15 31 -24 34 -20 10 10 -26 47 -45 47 -11 0 -8 -7
11 -27z"/>
<path d="M5380 2849 c0 -19 57 -75 67 -65 4 3 -10 23 -30 44 -24 24 -37 31
-37 21z"/>
<path d="M5380 2794 c0 -6 16 -25 35 -44 19 -19 35 -29 35 -24 0 6 -16 25 -35
44 -19 19 -35 29 -35 24z"/>
<path d="M5380 2739 c0 -19 57 -75 67 -65 4 3 -10 23 -30 44 -24 24 -37 31
-37 21z"/>
<path d="M5380 2689 c0 -18 57 -76 66 -67 3 4 -10 24 -30 45 -23 24 -36 32
-36 22z"/>
<path d="M5380 2634 c0 -6 16 -25 35 -44 19 -19 35 -29 35 -24 0 6 -16 25 -35
44 -19 19 -35 29 -35 24z"/>
<path d="M5380 2579 c0 -19 57 -75 67 -65 4 3 -10 23 -30 44 -24 24 -37 31
-37 21z"/>
<path d="M5380 2522 c0 -12 59 -66 65 -60 7 7 -43 68 -56 68 -5 0 -9 -4 -9 -8z"/>
<path d="M5380 2474 c0 -6 16 -25 35 -44 19 -19 35 -29 35 -24 0 6 -16 25 -35
44 -19 19 -35 29 -35 24z"/>
<path d="M5380 2419 c0 -19 57 -75 67 -65 4 3 -10 23 -30 44 -24 24 -37 31
-37 21z"/>
<path d="M5380 2362 c0 -12 59 -66 65 -60 7 7 -43 68 -56 68 -5 0 -9 -4 -9 -8z"/>
<path d="M5380 2314 c0 -6 16 -25 35 -44 19 -19 35 -29 35 -24 0 6 -16 25 -35
44 -19 19 -35 29 -35 24z"/>
<path d="M5380 2259 c0 -19 57 -75 67 -65 4 3 -10 23 -30 44 -24 24 -37 31
-37 21z"/>
<path d="M5380 2202 c0 -12 59 -66 65 -60 7 7 -43 68 -56 68 -5 0 -9 -4 -9 -8z"/>
<path d="M5380 2153 c0 -12 38 -48 45 -41 3 2 -6 15 -20 28 -14 13 -25 19 -25
13z"/>
<path d="M5810 2494 l0 -485 43 3 42 3 3 483 2 482 -45 0 -45 0 0 -486z"/>
<path d="M6226 2968 c-4 -11 -87 -931 -86 -950 0 -5 17 -8 39 -8 l39 0 6 53
c3 28 8 82 12 120 l6 67 53 0 c60 0 65 -6 65 -74 0 -24 3 -71 6 -105 l7 -61
38 0 c37 0 39 1 38 33 0 17 -17 235 -37 482 l-37 450 -73 3 c-52 2 -73 -1 -76
-10z m98 -360 c9 -128 19 -243 22 -255 4 -21 1 -23 -46 -23 -41 0 -50 3 -50
18 0 9 9 114 20 232 11 118 20 225 20 238 0 12 4 22 8 22 5 0 16 -105 26 -232z"/>
<path d="M6290 2596 c0 -9 5 -16 10 -16 6 0 10 4 10 9 0 6 -4 13 -10 16 -5 3
-10 -1 -10 -9z"/>
<path d="M6290 2546 c0 -8 5 -18 10 -21 6 -3 10 1 10 9 0 8 -4 18 -10 21 -5 3
-10 -1 -10 -9z"/>
<path d="M6280 2503 c0 -5 9 -18 20 -28 11 -10 20 -14 20 -8 0 5 -9 18 -20 28
-11 10 -20 14 -20 8z"/>
<path d="M6280 2448 c0 -8 9 -23 20 -33 16 -15 20 -15 20 -3 0 8 -9 23 -20 33
-16 15 -20 15 -20 3z"/>
<path d="M6270 2402 c0 -5 11 -19 25 -32 19 -18 25 -20 25 -8 0 8 -8 22 -18
31 -20 19 -32 22 -32 9z"/>
<path d="M780 2959 c0 -8 20 -35 45 -59 27 -27 45 -38 45 -29 0 8 -20 35 -45
59 -27 27 -45 38 -45 29z"/>
<path d="M1120 2962 c0 -7 16 -29 35 -50 22 -24 35 -31 35 -21 0 8 -16 30 -35
49 -19 19 -35 28 -35 22z"/>
<path d="M1330 2964 c0 -5 20 -30 45 -54 25 -24 45 -40 45 -34 0 5 -20 30 -45
54 -25 24 -45 40 -45 34z"/>
<path d="M2170 2959 c0 -8 18 -33 40 -54 25 -24 40 -33 40 -24 0 8 -18 33 -40
54 -25 24 -40 33 -40 24z"/>
<path d="M4480 2959 c0 -8 20 -35 45 -59 27 -27 45 -38 45 -29 0 8 -20 35 -45
59 -27 27 -45 38 -45 29z"/>
<path d="M5040 2959 c0 -8 20 -35 45 -59 27 -27 45 -38 45 -29 0 8 -20 35 -45
59 -27 27 -45 38 -45 29z"/>
<path d="M5920 2959 c0 -8 18 -33 40 -54 25 -24 40 -33 40 -24 0 8 -18 33 -40
54 -25 24 -40 33 -40 24z"/>
<path d="M3750 2954 c0 -5 18 -28 40 -49 22 -21 40 -35 40 -29 0 5 -18 28 -40
49 -22 21 -40 35 -40 29z"/>
<path d="M4890 2947 c0 -8 7 -20 15 -27 12 -10 15 -10 15 3 0 8 -7 20 -15 27
-12 10 -15 10 -15 -3z"/>
<path d="M5585 2900 c21 -22 41 -40 44 -40 3 0 -13 18 -34 40 -21 22 -41 40
-44 40 -3 0 13 -18 34 -40z"/>
<path d="M6400 2919 c0 -8 20 -35 45 -59 27 -27 45 -38 45 -29 0 8 -20 35 -45
59 -27 27 -45 38 -45 29z"/>
<path d="M1320 2912 c0 -4 20 -28 45 -52 27 -27 45 -38 45 -29 0 8 -17 32 -38
52 -37 36 -52 45 -52 29z"/>
<path d="M2170 2909 c0 -8 18 -33 40 -54 25 -24 40 -33 40 -24 0 8 -18 33 -40
54 -25 24 -40 33 -40 24z"/>
<path d="M4480 2909 c0 -8 20 -35 45 -59 27 -27 45 -38 45 -29 0 8 -20 35 -45
59 -27 27 -45 38 -45 29z"/>
<path d="M5040 2909 c0 -8 20 -35 45 -59 27 -27 45 -38 45 -29 0 8 -20 35 -45
59 -27 27 -45 38 -45 29z"/>
<path d="M780 2899 c0 -8 20 -32 45 -52 25 -21 45 -34 45 -30 0 5 -20 29 -45
53 -27 26 -45 38 -45 29z"/>
<path d="M2750 2901 c0 -6 20 -33 45 -59 27 -29 45 -41 45 -32 0 9 -20 36 -45
60 -25 24 -45 38 -45 31z"/>
<path d="M3280 2900 c0 -9 20 -36 45 -60 58 -57 59 -33 0 28 -27 29 -45 41
-45 32z"/>
<path d="M3750 2899 c0 -8 18 -33 40 -54 25 -24 40 -33 40 -24 0 8 -18 33 -40
54 -25 24 -40 33 -40 24z"/>
<path d="M4890 2897 c0 -8 7 -20 15 -27 12 -10 15 -10 15 3 0 8 -7 20 -15 27
-12 10 -15 10 -15 -3z"/>
<path d="M5920 2904 c0 -5 18 -28 40 -49 22 -21 40 -35 40 -29 0 5 -18 28 -40
49 -22 21 -40 35 -40 29z"/>
<path d="M1140 2888 c0 -8 9 -23 20 -33 16 -15 20 -15 20 -3 0 8 -9 23 -20 33
-16 15 -20 15 -20 3z"/>
<path d="M1850 2881 c0 -6 20 -33 45 -59 27 -29 45 -41 45 -32 0 9 -20 36 -45
60 -25 24 -45 38 -45 31z"/>
<path d="M732 2833 c26 -26 51 -44 54 -40 10 10 -66 87 -85 87 -10 0 3 -19 31
-47z"/>
<path d="M783 2834 c27 -26 51 -43 54 -40 10 9 -68 86 -87 86 -9 0 4 -19 33
-46z"/>
<path d="M3700 2835 c24 -24 46 -42 49 -40 6 7 -70 85 -83 85 -6 0 10 -20 34
-45z"/>
<path d="M3752 2833 c26 -26 51 -44 54 -40 10 10 -66 87 -85 87 -10 0 3 -19
31 -47z"/>
<path d="M5570 2871 c0 -6 20 -33 45 -59 27 -29 45 -41 45 -32 0 9 -20 36 -45
60 -25 24 -45 38 -45 31z"/>
<path d="M1350 2825 c25 -25 46 -41 48 -35 4 12 -66 79 -83 80 -5 0 11 -20 35
-45z"/>
<path d="M6400 2862 c0 -4 20 -28 45 -52 27 -27 45 -38 45 -29 0 8 -17 32 -38
52 -37 36 -52 45 -52 29z"/>
<path d="M670 2854 c0 -5 18 -28 40 -49 22 -21 40 -35 40 -29 0 5 -18 28 -40
49 -22 21 -40 35 -40 29z"/>
<path d="M2170 2854 c0 -5 18 -28 40 -49 22 -21 40 -35 40 -29 0 5 -18 28 -40
49 -22 21 -40 35 -40 29z"/>
<path d="M3630 2852 c0 -4 20 -28 45 -52 27 -27 45 -38 45 -29 0 8 -17 32 -38
52 -37 36 -52 45 -52 29z"/>
<path d="M4480 2854 c0 -5 20 -30 45 -54 25 -24 45 -40 45 -34 0 5 -20 30 -45
54 -25 24 -45 40 -45 34z"/>
<path d="M5040 2854 c0 -5 20 -30 45 -54 25 -24 45 -40 45 -34 0 5 -20 30 -45
54 -25 24 -45 40 -45 34z"/>
<path d="M5920 2849 c0 -8 18 -33 40 -54 25 -24 40 -33 40 -24 0 8 -18 33 -40
54 -25 24 -40 33 -40 24z"/>
<path d="M2760 2840 c0 -9 20 -36 45 -60 58 -57 59 -33 0 28 -27 29 -45 41
-45 32z"/>
<path d="M3290 2834 c0 -5 18 -28 40 -49 22 -21 40 -35 40 -29 0 5 -18 28 -40
49 -22 21 -40 35 -40 29z"/>
<path d="M4900 2831 c0 -5 5 -13 10 -16 6 -3 10 -2 10 4 0 5 -4 13 -10 16 -5
3 -10 2 -10 -4z"/>
<path d="M1150 2815 c0 -8 7 -15 16 -15 14 0 14 3 4 15 -7 8 -14 15 -16 15 -2
0 -4 -7 -4 -15z"/>
<path d="M1310 2819 c0 -19 76 -94 83 -82 4 6 -14 29 -38 53 -27 27 -45 38
-45 29z"/>
<path d="M1860 2819 c0 -8 20 -35 45 -59 25 -24 45 -40 45 -35 -1 17 -90 110
-90 94z"/>
<path d="M5580 2809 c0 -8 18 -33 40 -54 25 -24 40 -33 40 -24 0 8 -18 33 -40
54 -25 24 -40 33 -40 24z"/>
<path d="M670 2799 c0 -8 18 -33 40 -54 25 -24 40 -33 40 -24 0 8 -18 33 -40
54 -25 24 -40 33 -40 24z"/>
<path d="M2170 2799 c0 -8 18 -33 40 -54 25 -24 40 -33 40 -24 0 8 -18 33 -40
54 -25 24 -40 33 -40 24z"/>
<path d="M3630 2803 c0 -5 21 -29 46 -53 32 -31 45 -39 42 -26 -3 19 -88 96
-88 79z"/>
<path d="M4480 2799 c0 -8 20 -35 45 -59 27 -27 45 -38 45 -29 0 8 -20 35 -45
59 -27 27 -45 38 -45 29z"/>
<path d="M5040 2799 c0 -8 20 -35 45 -59 27 -27 45 -38 45 -29 0 8 -20 35 -45
59 -27 27 -45 38 -45 29z"/>
<path d="M5920 2799 c0 -8 18 -33 40 -54 25 -24 40 -33 40 -24 0 8 -18 33 -40
54 -25 24 -40 33 -40 24z"/>
<path d="M6410 2804 c0 -5 20 -30 45 -54 25 -24 45 -40 45 -34 0 5 -20 30 -45
54 -25 24 -45 40 -45 34z"/>
<path d="M1300 2779 c0 -19 77 -95 87 -85 4 3 -14 28 -40 54 -28 28 -47 41
-47 31z"/>
<path d="M2760 2784 c0 -5 20 -30 45 -54 25 -24 45 -40 45 -34 0 5 -20 30 -45
54 -25 24 -45 40 -45 34z"/>
<path d="M3290 2779 c0 -8 18 -33 40 -54 25 -24 40 -33 40 -24 0 8 -18 33 -40
54 -25 24 -40 33 -40 24z"/>
<path d="M4900 2781 c0 -5 5 -13 10 -16 6 -3 10 -2 10 4 0 5 -4 13 -10 16 -5
3 -10 2 -10 -4z"/>
<path d="M1860 2759 c0 -19 77 -95 87 -85 4 3 -14 28 -40 54 -28 28 -47 41
-47 31z"/>
<path d="M670 2749 c0 -8 18 -33 40 -54 25 -24 40 -33 40 -24 0 8 -18 33 -40
54 -25 24 -40 33 -40 24z"/>
<path d="M2170 2749 c0 -8 18 -33 40 -54 25 -24 40 -33 40 -24 0 8 -18 33 -40
54 -25 24 -40 33 -40 24z"/>
<path d="M3630 2751 c0 -15 81 -93 89 -85 3 2 -16 26 -42 52 -26 26 -47 41
-47 33z"/>
<path d="M4480 2749 c0 -8 20 -35 45 -59 27 -27 45 -38 45 -29 0 8 -20 35 -45
59 -27 27 -45 38 -45 29z"/>
<path d="M5040 2749 c0 -8 20 -35 45 -59 27 -27 45 -38 45 -29 0 8 -20 35 -45
59 -27 27 -45 38 -45 29z"/>
<path d="M5580 2754 c0 -5 18 -28 40 -49 22 -21 40 -35 40 -29 0 5 -18 28 -40
49 -22 21 -40 35 -40 29z"/>
<path d="M5920 2744 c0 -5 18 -28 40 -49 22 -21 40 -35 40 -29 0 5 -18 28 -40
49 -22 21 -40 35 -40 29z"/>
<path d="M6410 2742 c0 -4 20 -28 45 -52 27 -27 45 -38 45 -29 0 8 -17 32 -38
52 -37 36 -52 45 -52 29z"/>
<path d="M1290 2734 c0 -5 20 -30 45 -54 25 -24 45 -40 45 -34 0 5 -20 30 -45
54 -25 24 -45 40 -45 34z"/>
<path d="M2760 2729 c0 -8 20 -35 45 -59 27 -27 45 -38 45 -29 0 8 -20 35 -45
59 -27 27 -45 38 -45 29z"/>
<path d="M3290 2729 c0 -8 18 -33 40 -54 25 -24 40 -33 40 -24 0 8 -18 33 -40
54 -25 24 -40 33 -40 24z"/>
<path d="M4911 2714 c0 -11 3 -14 6 -6 3 7 2 16 -1 19 -3 4 -6 -2 -5 -13z"/>
<path d="M1860 2709 c0 -19 77 -95 87 -85 4 3 -14 28 -40 54 -28 28 -47 41
-47 31z"/>
<path d="M5580 2699 c0 -8 18 -33 40 -54 25 -24 40 -33 40 -24 0 8 -18 33 -40
54 -25 24 -40 33 -40 24z"/>
<path d="M670 2696 c0 -5 18 -28 40 -52 22 -24 40 -38 40 -31 0 7 -18 31 -40
52 -22 21 -40 35 -40 31z"/>
<path d="M1280 2689 c0 -19 77 -95 87 -85 4 3 -14 28 -40 54 -28 28 -47 41
-47 31z"/>
<path d="M2170 2694 c0 -5 18 -28 40 -49 22 -21 40 -35 40 -29 0 5 -18 28 -40
49 -22 21 -40 35 -40 29z"/>
<path d="M3630 2692 c0 -4 20 -28 45 -52 27 -27 45 -38 45 -29 0 8 -17 32 -38
52 -37 36 -52 45 -52 29z"/>
<path d="M4480 2694 c0 -5 20 -30 45 -54 25 -24 45 -40 45 -34 0 5 -20 30 -45
54 -25 24 -45 40 -45 34z"/>
<path d="M5040 2694 c0 -5 20 -30 45 -54 25 -24 45 -40 45 -34 0 5 -20 30 -45
54 -25 24 -45 40 -45 34z"/>
<path d="M5920 2689 c0 -8 18 -33 40 -54 25 -24 40 -33 40 -24 0 8 -18 33 -40
54 -25 24 -40 33 -40 24z"/>
<path d="M2760 2680 c0 -9 20 -36 45 -60 58 -57 59 -33 0 28 -27 29 -45 41
-45 32z"/>
<path d="M6420 2684 c0 -5 20 -30 45 -54 25 -24 45 -40 45 -34 0 5 -20 30 -45
54 -25 24 -45 40 -45 34z"/>
<path d="M3290 2674 c0 -5 18 -28 40 -49 22 -21 40 -35 40 -29 0 5 -18 28 -40
49 -22 21 -40 35 -40 29z"/>
<path d="M1860 2654 c0 -5 20 -30 45 -54 25 -24 45 -40 45 -34 0 5 -20 30 -45
54 -25 24 -45 40 -45 34z"/>
<path d="M5580 2649 c0 -8 18 -33 40 -54 25 -24 40 -33 40 -24 0 8 -18 33 -40
54 -25 24 -40 33 -40 24z"/>
<path d="M670 2639 c0 -19 67 -85 77 -75 4 3 -12 26 -35 49 -26 26 -42 36 -42
26z"/>
<path d="M1270 2642 c0 -4 20 -28 45 -52 27 -27 45 -38 45 -29 0 8 -17 32 -38
52 -37 36 -52 45 -52 29z"/>
<path d="M2170 2639 c0 -8 18 -33 40 -54 25 -24 40 -33 40 -24 0 8 -18 33 -40
54 -25 24 -40 33 -40 24z"/>
<path d="M3630 2643 c0 -14 79 -88 86 -81 3 4 3 11 0 17 -11 17 -86 73 -86 64z"/>
<path d="M4480 2639 c0 -8 20 -35 45 -59 27 -27 45 -38 45 -29 0 8 -20 35 -45
59 -27 27 -45 38 -45 29z"/>
<path d="M5040 2639 c0 -8 20 -35 45 -59 27 -27 45 -38 45 -29 0 8 -20 35 -45
59 -27 27 -45 38 -45 29z"/>
<path d="M5920 2639 c0 -8 18 -33 40 -54 25 -24 40 -33 40 -24 0 8 -18 33 -40
54 -25 24 -40 33 -40 24z"/>
<path d="M6420 2631 c0 -6 20 -33 45 -59 27 -29 45 -41 45 -32 0 9 -20 36 -45
60 -25 24 -45 38 -45 31z"/>
<path d="M2760 2624 c0 -5 20 -30 45 -54 25 -24 45 -40 45 -34 0 5 -20 30 -45
54 -25 24 -45 40 -45 34z"/>
<path d="M3287 2623 c-4 -6 14 -29 38 -53 27 -27 45 -38 45 -29 0 19 -76 94
-83 82z"/>
<path d="M1860 2599 c0 -19 77 -95 87 -85 4 3 -14 28 -40 54 -28 28 -47 41
-47 31z"/>
<path d="M670 2586 c0 -9 7 -19 15 -23 25 -9 27 2 5 22 -18 17 -20 17 -20 1z"/>
<path d="M1300 2555 c24 -24 46 -42 49 -40 6 7 -70 85 -83 85 -6 0 10 -20 34
-45z"/>
<path d="M2170 2589 c0 -8 18 -33 40 -54 25 -24 40 -33 40 -24 0 8 -18 33 -40
54 -25 24 -40 33 -40 24z"/>
<path d="M3630 2593 c0 -13 29 -38 35 -31 3 3 -4 13 -15 23 -11 10 -20 13 -20
8z"/>
<path d="M4480 2589 c0 -8 20 -35 45 -59 27 -27 45 -38 45 -29 0 8 -20 35 -45
59 -27 27 -45 38 -45 29z"/>
<path d="M5040 2589 c0 -8 20 -35 45 -59 27 -27 45 -38 45 -29 0 8 -20 35 -45
59 -27 27 -45 38 -45 29z"/>
<path d="M5580 2594 c0 -5 18 -28 40 -49 22 -21 40 -35 40 -29 0 5 -18 28 -40
49 -22 21 -40 35 -40 29z"/>
<path d="M5920 2582 c0 -7 18 -32 40 -55 25 -26 40 -36 40 -27 0 9 -18 34 -40
55 -22 21 -40 33 -40 27z"/>
<path d="M2760 2569 c0 -8 20 -35 45 -59 27 -27 45 -38 45 -29 0 8 -20 35 -45
59 -27 27 -45 38 -45 29z"/>
<path d="M3280 2572 c0 -4 20 -28 45 -52 27 -27 45 -38 45 -29 0 8 -17 32 -38
52 -37 36 -52 45 -52 29z"/>
<path d="M6430 2570 c0 -9 20 -36 45 -60 58 -57 59 -33 0 28 -27 29 -45 41
-45 32z"/>
<path d="M1850 2559 c0 -8 20 -35 45 -59 27 -27 45 -38 45 -29 0 8 -20 35 -45
59 -27 27 -45 38 -45 29z"/>
<path d="M1260 2549 c0 -19 76 -94 83 -82 4 6 -14 29 -38 53 -27 27 -45 38
-45 29z"/>
<path d="M780 2539 c0 -8 20 -35 45 -59 27 -27 45 -38 45 -29 0 8 -20 35 -45
59 -27 27 -45 38 -45 29z"/>
<path d="M5580 2539 c0 -8 18 -33 40 -54 25 -24 40 -33 40 -24 0 8 -18 33 -40
54 -25 24 -40 33 -40 24z"/>
<path d="M2170 2534 c0 -5 18 -28 40 -49 22 -21 40 -35 40 -29 0 5 -18 28 -40
49 -22 21 -40 35 -40 29z"/>
<path d="M3270 2534 c0 -5 20 -30 45 -54 25 -24 45 -40 45 -34 0 5 -20 30 -45
54 -25 24 -45 40 -45 34z"/>
<path d="M3750 2534 c0 -5 18 -28 40 -49 22 -21 40 -35 40 -29 0 5 -18 28 -40
49 -22 21 -40 35 -40 29z"/>
<path d="M4480 2534 c0 -5 20 -30 45 -54 25 -24 45 -40 45 -34 0 5 -20 30 -45
54 -25 24 -45 40 -45 34z"/>
<path d="M5040 2534 c0 -5 20 -30 45 -54 25 -24 45 -40 45 -34 0 5 -20 30 -45
54 -25 24 -45 40 -45 34z"/>
<path d="M5920 2529 c0 -8 18 -33 40 -54 25 -24 40 -33 40 -24 0 8 -18 33 -40
54 -25 24 -40 33 -40 24z"/>
<path d="M2760 2520 c0 -9 20 -36 45 -60 58 -57 59 -33 0 28 -27 29 -45 41
-45 32z"/>
<path d="M1870 2475 c24 -25 49 -45 54 -45 6 0 -10 20 -34 45 -24 25 -49 45
-54 45 -6 0 10 -20 34 -45z"/>
<path d="M6430 2514 c0 -5 20 -30 45 -54 25 -24 45 -40 45 -34 0 5 -20 30 -45
54 -25 24 -45 40 -45 34z"/>
<path d="M1260 2499 c0 -8 20 -35 45 -59 27 -27 45 -38 45 -29 0 8 -20 35 -45
59 -27 27 -45 38 -45 29z"/>
<path d="M3251 2493 c33 -45 73 -82 82 -76 5 3 -10 25 -34 49 -43 43 -74 61
-48 27z"/>
<path d="M5580 2489 c0 -8 18 -33 40 -54 25 -24 40 -33 40 -24 0 8 -18 33 -40
54 -25 24 -40 33 -40 24z"/>
<path d="M780 2483 c0 -5 20 -29 45 -53 28 -27 45 -38 45 -29 0 8 -12 26 -27
40 -44 39 -63 52 -63 42z"/>
<path d="M1810 2482 c0 -14 86 -93 93 -85 4 4 -12 26 -35 50 -41 41 -58 52
-58 35z"/>
<path d="M2170 2479 c0 -8 18 -33 40 -54 25 -24 40 -33 40 -24 0 8 -18 33 -40
54 -25 24 -40 33 -40 24z"/>
<path d="M3750 2479 c0 -8 18 -33 40 -54 25 -24 40 -33 40 -24 0 8 -18 33 -40
54 -25 24 -40 33 -40 24z"/>
<path d="M4480 2479 c0 -8 20 -35 45 -59 27 -27 45 -38 45 -29 0 8 -20 35 -45
59 -27 27 -45 38 -45 29z"/>
<path d="M5040 2479 c0 -8 20 -35 45 -59 27 -27 45 -38 45 -29 0 8 -20 35 -45
59 -27 27 -45 38 -45 29z"/>
<path d="M5920 2474 c0 -5 18 -28 40 -49 22 -21 40 -35 40 -29 0 5 -18 28 -40
49 -22 21 -40 35 -40 29z"/>
<path d="M2760 2464 c0 -5 20 -30 45 -54 25 -24 45 -40 45 -34 0 5 -20 30 -45
54 -25 24 -45 40 -45 34z"/>
<path d="M1820 2415 c24 -24 47 -42 53 -38 12 7 -63 83 -82 83 -9 0 2 -18 29
-45z"/>
<path d="M6440 2450 c0 -19 77 -97 86 -87 3 3 -14 27 -40 54 -27 29 -46 42
-46 33z"/>
<path d="M1270 2440 c0 -9 20 -36 45 -60 58 -57 59 -33 0 28 -27 29 -45 41
-45 32z"/>
<path d="M1780 2405 c24 -25 49 -45 54 -45 6 0 -10 20 -34 45 -24 25 -49 45
-54 45 -6 0 10 -20 34 -45z"/>
<path d="M670 2434 c0 -13 78 -89 85 -83 2 3 -16 25 -40 49 -25 24 -45 40 -45
34z"/>
<path d="M752 2393 c26 -26 51 -44 54 -40 10 10 -66 87 -85 87 -10 0 3 -19 31
-47z"/>
<path d="M800 2395 c24 -25 51 -45 59 -45 9 0 -2 18 -29 45 -24 25 -51 45 -59
45 -9 0 2 -18 29 -45z"/>
<path d="M1730 2395 c24 -25 51 -45 59 -45 9 0 -2 18 -29 45 -24 25 -51 45
-59 45 -9 0 2 -18 29 -45z"/>
<path d="M2170 2429 c0 -8 18 -33 40 -54 25 -24 40 -33 40 -24 0 8 -18 33 -40
54 -25 24 -40 33 -40 24z"/>
<path d="M3630 2432 c0 -14 86 -93 93 -85 4 4 -12 26 -35 50 -41 41 -58 52
-58 35z"/>
<path d="M3720 2395 c24 -25 49 -45 54 -45 6 0 -10 20 -34 45 -24 25 -49 45
-54 45 -6 0 10 -20 34 -45z"/>
<path d="M3772 2393 c26 -26 51 -44 54 -40 10 10 -66 87 -85 87 -10 0 3 -19
31 -47z"/>
<path d="M4480 2429 c0 -8 20 -35 45 -59 27 -27 45 -38 45 -29 0 8 -20 35 -45
59 -27 27 -45 38 -45 29z"/>
<path d="M5040 2429 c0 -8 20 -35 45 -59 27 -27 45 -38 45 -29 0 8 -20 35 -45
59 -27 27 -45 38 -45 29z"/>
<path d="M5580 2434 c0 -5 18 -28 40 -49 22 -21 40 -35 40 -29 0 5 -18 28 -40
49 -22 21 -40 35 -40 29z"/>
<path d="M3125 2400 c16 -16 31 -28 33 -25 7 7 -39 55 -52 55 -5 0 3 -13 19
-30z"/>
<path d="M5920 2422 c0 -7 18 -32 40 -55 25 -26 40 -36 40 -27 0 9 -18 34 -40
55 -22 21 -40 33 -40 27z"/>
<path d="M1680 2410 c0 -19 77 -97 86 -87 3 3 -14 27 -40 54 -27 29 -46 42
-46 33z"/>
<path d="M2760 2409 c0 -8 20 -35 45 -59 27 -27 45 -38 45 -29 0 8 -20 35 -45
59 -27 27 -45 38 -45 29z"/>
<path d="M3280 2414 c0 -5 20 -30 45 -54 25 -24 45 -40 45 -34 0 5 -20 30 -45
54 -25 24 -45 40 -45 34z"/>
<path d="M6440 2399 c0 -8 20 -35 45 -59 27 -27 45 -38 45 -29 0 8 -20 35 -45
59 -27 27 -45 38 -45 29z"/>
<path d="M670 2379 c0 -8 18 -33 40 -54 25 -24 40 -33 40 -24 0 8 -18 33 -40
54 -25 24 -40 33 -40 24z"/>
<path d="M3100 2379 c0 -9 14 -28 30 -44 21 -20 30 -24 30 -14 0 9 -13 28 -30
44 -21 20 -30 24 -30 14z"/>
<path d="M3630 2383 c0 -5 21 -29 46 -53 32 -31 45 -39 42 -26 -3 19 -88 96
-88 79z"/>
<path d="M5580 2379 c0 -8 18 -33 40 -54 25 -24 40 -33 40 -24 0 8 -18 33 -40
54 -25 24 -40 33 -40 24z"/>
<path d="M1280 2369 c0 -19 77 -95 87 -85 4 3 -14 28 -40 54 -28 28 -47 41
-47 31z"/>
<path d="M2170 2374 c0 -5 18 -28 40 -49 22 -21 40 -35 40 -29 0 5 -18 28 -40
49 -22 21 -40 35 -40 29z"/>
<path d="M4480 2374 c0 -5 20 -30 45 -54 25 -24 45 -40 45 -34 0 5 -20 30 -45
54 -25 24 -45 40 -45 34z"/>
<path d="M5040 2374 c0 -5 20 -30 45 -54 25 -24 45 -40 45 -34 0 5 -20 30 -45
54 -25 24 -45 40 -45 34z"/>
<path d="M5920 2369 c0 -8 18 -33 40 -54 25 -24 40 -33 40 -24 0 8 -18 33 -40
54 -25 24 -40 33 -40 24z"/>
<path d="M2760 2360 c0 -9 20 -36 45 -60 58 -57 59 -33 0 28 -27 29 -45 41
-45 32z"/>
<path d="M1680 2354 c0 -5 20 -30 45 -54 25 -24 45 -40 45 -34 0 5 -20 30 -45
54 -25 24 -45 40 -45 34z"/>
<path d="M3290 2354 c0 -5 18 -28 40 -49 22 -21 40 -35 40 -29 0 5 -18 28 -40
49 -22 21 -40 35 -40 29z"/>
<path d="M670 2329 c0 -8 18 -33 40 -54 25 -24 40 -33 40 -24 0 8 -18 33 -40
54 -25 24 -40 33 -40 24z"/>
<path d="M3100 2329 c0 -9 14 -28 30 -44 21 -20 30 -24 30 -14 0 9 -13 28 -30
44 -21 20 -30 24 -30 14z"/>
<path d="M3630 2331 c0 -15 81 -93 89 -85 3 2 -16 26 -42 52 -26 26 -47 41
-47 33z"/>
<path d="M5580 2329 c0 -8 18 -33 40 -54 25 -24 40 -33 40 -24 0 8 -18 33 -40
54 -25 24 -40 33 -40 24z"/>
<path d="M6450 2334 c0 -5 18 -28 40 -49 22 -21 40 -35 40 -29 0 5 -18 28 -40
49 -22 21 -40 35 -40 29z"/>
<path d="M2170 2319 c0 -8 18 -33 40 -54 25 -24 40 -33 40 -24 0 8 -18 33 -40
54 -25 24 -40 33 -40 24z"/>
<path d="M4480 2319 c0 -8 20 -35 45 -59 27 -27 45 -38 45 -29 0 8 -20 35 -45
59 -27 27 -45 38 -45 29z"/>
<path d="M5040 2319 c0 -8 20 -35 45 -59 27 -27 45 -38 45 -29 0 8 -20 35 -45
59 -27 27 -45 38 -45 29z"/>
<path d="M5920 2317 c0 -7 18 -31 40 -52 22 -21 40 -35 40 -31 0 5 -18 28 -40
52 -22 24 -40 38 -40 31z"/>
<path d="M1290 2310 c0 -9 20 -36 45 -60 58 -57 59 -33 0 28 -27 29 -45 41
-45 32z"/>
<path d="M1680 2299 c0 -19 77 -95 87 -85 4 3 -14 28 -40 54 -28 28 -47 41
-47 31z"/>
<path d="M2760 2299 c0 -19 77 -95 87 -85 4 3 -14 28 -40 54 -28 28 -47 41
-47 31z"/>
<path d="M3290 2299 c0 -8 18 -33 40 -54 25 -24 40 -33 40 -24 0 8 -18 33 -40
54 -25 24 -40 33 -40 24z"/>
<path d="M1161 2274 c0 -11 3 -14 6 -6 3 7 2 16 -1 19 -3 4 -6 -2 -5 -13z"/>
<path d="M3630 2279 c0 -8 20 -35 45 -59 27 -27 45 -38 45 -29 0 8 -20 35 -45
59 -27 27 -45 38 -45 29z"/>
<path d="M6450 2279 c0 -8 20 -35 45 -59 27 -27 45 -38 45 -29 0 8 -20 35 -45
59 -27 27 -45 38 -45 29z"/>
<path d="M670 2274 c0 -5 18 -28 40 -49 22 -21 40 -35 40 -29 0 5 -18 28 -40
49 -22 21 -40 35 -40 29z"/>
<path d="M2170 2269 c0 -8 18 -33 40 -54 25 -24 40 -33 40 -24 0 8 -18 33 -40
54 -25 24 -40 33 -40 24z"/>
<path d="M3100 2274 c0 -6 14 -23 30 -39 17 -16 30 -24 30 -19 0 6 -13 23 -30
39 -16 16 -30 24 -30 19z"/>
<path d="M4480 2269 c0 -8 20 -35 45 -59 27 -27 45 -38 45 -29 0 8 -20 35 -45
59 -27 27 -45 38 -45 29z"/>
<path d="M4820 2271 c0 -5 5 -13 10 -16 6 -3 10 -2 10 4 0 5 -4 13 -10 16 -5
3 -10 2 -10 -4z"/>
<path d="M5040 2269 c0 -8 20 -35 45 -59 27 -27 45 -38 45 -29 0 8 -20 35 -45
59 -27 27 -45 38 -45 29z"/>
<path d="M5580 2274 c0 -5 18 -28 40 -49 22 -21 40 -35 40 -29 0 5 -18 28 -40
49 -22 21 -40 35 -40 29z"/>
<path d="M5920 2259 c0 -8 18 -33 40 -54 25 -24 40 -33 40 -24 0 8 -18 33 -40
54 -25 24 -40 33 -40 24z"/>
<path d="M1680 2250 c0 -19 77 -97 86 -87 3 3 -14 27 -40 54 -27 29 -46 42
-46 33z"/>
<path d="M2760 2249 c0 -8 20 -35 45 -59 27 -27 45 -38 45 -29 0 8 -20 35 -45
59 -27 27 -45 38 -45 29z"/>
<path d="M3290 2249 c0 -8 18 -33 40 -54 25 -24 40 -33 40 -24 0 8 -18 33 -40
54 -25 24 -40 33 -40 24z"/>
<path d="M1300 2244 c0 -5 21 -30 46 -54 26 -25 42 -36 36 -25 -13 26 -82 92
-82 79z"/>
<path d="M1150 2232 c0 -5 7 -15 15 -22 8 -7 15 -8 15 -2 0 5 -7 15 -15 22 -8
7 -15 8 -15 2z"/>
<path d="M670 2219 c0 -8 18 -33 40 -54 25 -24 40 -33 40 -24 0 8 -18 33 -40
54 -25 24 -40 33 -40 24z"/>
<path d="M3100 2219 c0 -9 14 -28 30 -44 21 -20 30 -24 30 -14 0 9 -13 28 -30
44 -21 20 -30 24 -30 14z"/>
<path d="M3630 2223 c0 -5 21 -29 46 -53 32 -31 45 -39 42 -26 -3 19 -88 96
-88 79z"/>
<path d="M5580 2219 c0 -8 18 -33 40 -54 25 -24 40 -33 40 -24 0 8 -18 33 -40
54 -25 24 -40 33 -40 24z"/>
<path d="M6305 2200 c16 -16 31 -28 33 -25 9 9 -29 55 -45 55 -13 0 -10 -7 12
-30z"/>
<path d="M6460 2219 c0 -8 18 -33 40 -54 25 -24 40 -33 40 -24 0 8 -18 33 -40
54 -25 24 -40 33 -40 24z"/>
<path d="M2170 2214 c0 -5 18 -28 40 -49 22 -21 40 -35 40 -29 0 5 -18 28 -40
49 -22 21 -40 35 -40 29z"/>
<path d="M4480 2214 c0 -5 20 -30 45 -54 25 -24 45 -40 45 -34 0 5 -20 30 -45
54 -25 24 -45 40 -45 34z"/>
<path d="M4820 2211 c0 -6 5 -13 10 -16 6 -3 10 1 10 9 0 9 -4 16 -10 16 -5 0
-10 -4 -10 -9z"/>
<path d="M5040 2215 c1 -17 89 -111 90 -95 0 9 -20 36 -45 60 -25 24 -45 40
-45 35z"/>
<path d="M5920 2209 c0 -8 18 -33 40 -54 25 -24 40 -33 40 -24 0 8 -18 33 -40
54 -25 24 -40 33 -40 24z"/>
<path d="M2760 2200 c0 -9 20 -36 45 -60 58 -57 59 -33 0 28 -27 29 -45 41
-45 32z"/>
<path d="M6260 2204 c0 -5 18 -28 40 -49 22 -21 40 -35 40 -29 0 5 -18 28 -40
49 -22 21 -40 35 -40 29z"/>
<path d="M1680 2194 c0 -5 20 -30 45 -54 25 -24 45 -40 45 -34 0 5 -20 30 -45
54 -25 24 -45 40 -45 34z"/>
<path d="M3290 2194 c0 -5 18 -28 40 -49 22 -21 40 -35 40 -29 0 5 -18 28 -40
49 -22 21 -40 35 -40 29z"/>
<path d="M1140 2182 c0 -14 39 -46 47 -39 3 4 -2 16 -12 27 -19 21 -35 26 -35
12z"/>
<path d="M1310 2180 c0 -19 77 -97 86 -87 3 3 -14 27 -40 54 -27 29 -46 42
-46 33z"/>
<path d="M670 2169 c0 -19 45 -62 60 -57 6 2 -5 19 -25 38 -23 22 -35 29 -35
19z"/>
<path d="M3100 2169 c0 -9 14 -28 30 -44 21 -20 30 -24 30 -14 0 9 -13 28 -30
44 -21 20 -30 24 -30 14z"/>
<path d="M3630 2173 c0 -19 45 -66 59 -62 7 3 -2 18 -24 39 -19 18 -35 29 -35
23z"/>
<path d="M5580 2169 c0 -8 18 -33 40 -54 25 -24 40 -33 40 -24 0 8 -18 33 -40
54 -25 24 -40 33 -40 24z"/>
<path d="M2170 2158 c0 -19 35 -51 50 -46 6 2 -3 16 -20 33 -21 20 -30 24 -30
13z"/>
<path d="M4480 2159 c0 -8 20 -35 45 -59 27 -27 45 -38 45 -29 0 8 -20 35 -45
59 -27 27 -45 38 -45 29z"/>
<path d="M4820 2162 c0 -5 7 -15 15 -22 8 -7 15 -8 15 -2 0 5 -7 15 -15 22 -8
7 -15 8 -15 2z"/>
<path d="M5040 2159 c0 -8 20 -35 45 -59 27 -27 45 -38 45 -29 0 8 -20 35 -45
59 -27 27 -45 38 -45 29z"/>
<path d="M6250 2159 c0 -8 20 -35 45 -59 27 -27 45 -38 45 -29 0 8 -20 35 -45
59 -27 27 -45 38 -45 29z"/>
<path d="M6460 2164 c0 -5 20 -30 45 -54 25 -24 45 -40 45 -34 0 5 -20 30 -45
54 -25 24 -45 40 -45 34z"/>
<path d="M5920 2154 c0 -5 18 -28 40 -49 22 -21 40 -35 40 -29 0 5 -18 28 -40
49 -22 21 -40 35 -40 29z"/>
<path d="M1140 2139 c0 -9 13 -28 29 -43 26 -25 29 -26 24 -8 -7 27 -53 71
-53 51z"/>
<path d="M1680 2139 c0 -19 77 -95 87 -85 4 3 -14 28 -40 54 -28 28 -47 41
-47 31z"/>
<path d="M2760 2139 c0 -19 77 -95 87 -85 4 3 -14 28 -40 54 -28 28 -47 41
-47 31z"/>
<path d="M3290 2139 c0 -8 18 -33 40 -54 25 -24 40 -33 40 -24 0 8 -18 33 -40
54 -25 24 -40 33 -40 24z"/>
<path d="M1320 2119 c0 -8 18 -33 40 -54 25 -24 40 -33 40 -24 0 8 -18 33 -40
54 -25 24 -40 33 -40 24z"/>
<path d="M3630 2120 c0 -5 5 -10 11 -10 5 0 7 5 4 10 -3 6 -8 10 -11 10 -2 0
-4 -4 -4 -10z"/>
<path d="M5570 2124 c0 -5 20 -30 45 -54 25 -24 45 -40 45 -34 0 5 -20 30 -45
54 -25 24 -45 40 -45 34z"/>
<path d="M3100 2114 c0 -6 14 -23 30 -39 17 -16 30 -24 30 -19 0 6 -13 23 -30
39 -16 16 -30 24 -30 19z"/>
<path d="M4480 2109 c0 -8 20 -35 45 -59 27 -27 45 -38 45 -29 0 8 -20 35 -45
59 -27 27 -45 38 -45 29z"/>
<path d="M4820 2113 c0 -6 7 -19 16 -28 9 -9 19 -13 22 -10 3 3 -4 15 -16 28
-12 12 -22 16 -22 10z"/>
<path d="M6250 2109 c0 -19 77 -95 87 -85 4 3 -14 28 -40 54 -28 28 -47 41
-47 31z"/>
<path d="M5040 2102 c0 -4 20 -28 45 -52 55 -54 59 -45 8 16 -35 42 -53 54
-53 36z"/>
<path d="M5920 2099 c0 -8 18 -33 40 -54 25 -24 40 -33 40 -24 0 8 -18 33 -40
54 -25 24 -40 33 -40 24z"/>
<path d="M6470 2099 c0 -8 18 -33 40 -54 25 -24 40 -33 40 -24 0 8 -18 33 -40
54 -25 24 -40 33 -40 24z"/>
<path d="M780 2093 c0 -5 20 -26 45 -46 48 -41 63 -37 18 4 -44 39 -63 52 -63
42z"/>
<path d="M1130 2094 c0 -6 16 -25 35 -44 19 -19 35 -29 35 -24 0 6 -16 25 -35
44 -19 19 -35 29 -35 24z"/>
<path d="M1680 2090 c0 -9 20 -36 45 -60 58 -57 59 -33 0 28 -27 29 -45 41
-45 32z"/>
<path d="M2320 2055 c24 -24 46 -42 49 -40 6 7 -70 85 -83 85 -6 0 10 -20 34
-45z"/>
<path d="M2750 2092 c0 -4 20 -28 45 -52 27 -27 45 -38 45 -29 0 8 -17 32 -38
52 -37 36 -52 45 -52 29z"/>
<path d="M3290 2089 c0 -8 18 -33 40 -54 25 -24 40 -33 40 -24 0 8 -18 33 -40
54 -25 24 -40 33 -40 24z"/>
<path d="M3750 2094 c0 -5 18 -28 40 -49 22 -21 40 -35 40 -29 0 5 -18 28 -40
49 -22 21 -40 35 -40 29z"/>
<path d="M5560 2072 c0 -4 20 -28 45 -52 27 -27 45 -38 45 -29 0 8 -17 32 -38
52 -37 36 -52 45 -52 29z"/>
<path d="M1328 2055 c13 -26 82 -92 82 -79 0 5 -21 30 -46 54 -26 25 -42 36
-36 25z"/>
<path d="M3100 2059 c0 -19 77 -95 87 -85 4 3 -14 28 -40 54 -28 28 -47 41
-47 31z"/>
<path d="M6240 2064 c0 -5 20 -30 45 -54 25 -24 45 -40 45 -34 0 5 -20 30 -45
54 -25 24 -45 40 -45 34z"/>
<path d="M780 2049 c0 -8 20 -35 45 -59 27 -27 45 -38 45 -29 0 8 -20 35 -45
59 -27 27 -45 38 -45 29z"/>
<path d="M2740 2054 c0 -13 78 -89 85 -83 2 3 -16 25 -40 49 -25 24 -45 40
-45 34z"/>
<path d="M4480 2054 c0 -5 20 -30 45 -54 25 -24 45 -40 45 -34 0 5 -20 30 -45
54 -25 24 -45 40 -45 34z"/>
<path d="M4820 2052 c0 -5 9 -17 20 -27 16 -14 20 -15 20 -4 0 16 -19 39 -32
39 -4 0 -8 -4 -8 -8z"/>
<path d="M5040 2055 c1 -17 89 -111 90 -95 0 9 -20 36 -45 60 -25 24 -45 40
-45 35z"/>
<path d="M5920 2049 c0 -8 18 -33 40 -54 25 -24 40 -33 40 -24 0 8 -18 33 -40
54 -25 24 -40 33 -40 24z"/>
<path d="M6470 2049 c0 -8 20 -35 45 -59 27 -27 45 -38 45 -29 0 8 -20 35 -45
59 -27 27 -45 38 -45 29z"/>
<path d="M1120 2042 c0 -4 20 -28 45 -52 27 -27 45 -38 45 -29 0 8 -17 32 -38
52 -37 36 -52 45 -52 29z"/>
<path d="M2280 2042 c0 -4 20 -28 45 -52 27 -27 45 -38 45 -29 0 8 -17 32 -38
52 -37 36 -52 45 -52 29z"/>
<path d="M3750 2044 c0 -5 18 -28 40 -49 22 -21 40 -35 40 -29 0 5 -18 28 -40
49 -22 21 -40 35 -40 29z"/>
<path d="M5547 2043 c-4 -6 13 -29 37 -52 24 -24 46 -39 49 -34 4 6 -13 29
-37 52 -24 24 -46 39 -49 34z"/>
<path d="M1680 2034 c0 -5 20 -30 45 -54 25 -24 45 -40 45 -34 0 5 -20 30 -45
54 -25 24 -45 40 -45 34z"/>
<path d="M2717 2023 c-8 -13 68 -86 82 -82 7 3 -8 24 -33 48 -24 23 -46 39
-49 34z"/>
<path d="M3100 2009 c0 -8 20 -35 45 -59 27 -27 45 -38 45 -29 0 8 -20 35 -45
59 -27 27 -45 38 -45 29z"/>
<path d="M3319 2009 c6 -9 9 -18 6 -21 -2 -2 15 -24 40 -48 65 -64 65 -43 -1
26 -31 32 -51 52 -45 43z"/>
<path d="M5520 2014 c0 -13 78 -89 85 -83 2 3 -16 25 -40 49 -25 24 -45 40
-45 34z"/>
<path d="M6240 2009 c0 -8 20 -35 45 -59 27 -27 45 -38 45 -29 0 8 -20 35 -45
59 -27 27 -45 38 -45 29z"/>
<path d="M1120 1999 c0 -8 18 -33 40 -54 25 -24 40 -33 40 -24 0 8 -18 33 -40
54 -25 24 -40 33 -40 24z"/>
<path d="M1330 1999 c0 -8 20 -35 45 -59 27 -27 45 -38 45 -29 0 8 -20 35 -45
59 -27 27 -45 38 -45 29z"/>
<path d="M2520 2001 c0 -11 91 -91 105 -91 11 0 -63 78 -87 91 -12 6 -18 6
-18 0z"/>
<path d="M2687 2003 c-4 -6 13 -29 37 -52 24 -24 46 -39 49 -34 4 6 -13 29
-37 52 -24 24 -46 39 -49 34z"/>
<path d="M4480 1999 c0 -8 20 -35 45 -59 27 -27 45 -38 45 -29 0 8 -20 35 -45
59 -27 27 -45 38 -45 29z"/>
<path d="M4820 2004 c0 -5 20 -30 45 -54 25 -24 45 -40 45 -34 0 5 -20 30 -45
54 -25 24 -45 40 -45 34z"/>
<path d="M5040 1999 c0 -8 20 -35 45 -59 27 -27 45 -38 45 -29 0 8 -20 35 -45
59 -27 27 -45 38 -45 29z"/>
<path d="M780 1993 c0 -5 20 -29 45 -53 28 -27 45 -38 45 -29 0 8 -12 26 -27
40 -44 39 -63 52 -63 42z"/>
<path d="M2280 1993 c0 -5 20 -29 45 -53 25 -25 45 -38 45 -30 -1 16 -90 98
-90 83z"/>
<path d="M3740 1992 c0 -4 20 -28 45 -52 27 -27 45 -38 45 -29 0 8 -17 32 -38
52 -37 36 -52 45 -52 29z"/>
<path d="M5480 1992 c0 -14 75 -82 90 -82 8 0 -6 20 -30 45 -42 43 -60 54 -60
37z"/>
<path d="M5950 1955 c24 -24 46 -42 49 -40 6 7 -70 85 -83 85 -6 0 10 -20 34
-45z"/>
<path d="M6470 1994 c0 -5 20 -30 45 -54 25 -24 45 -40 45 -34 0 5 -20 30 -45
54 -25 24 -45 40 -45 34z"/>
<path d="M600 1945 c24 -25 51 -45 59 -45 9 0 -2 18 -29 45 -24 25 -51 45 -59
45 -9 0 2 -18 29 -45z"/>
<path d="M660 1945 c24 -25 48 -45 53 -45 4 0 -9 20 -30 45 -20 25 -44 45 -52
45 -9 0 3 -18 29 -45z"/>
<path d="M712 1943 c26 -26 51 -44 54 -40 10 10 -66 87 -85 87 -10 0 3 -19 31
-47z"/>
<path d="M730 1985 c0 -13 74 -85 88 -85 11 0 1 16 -28 45 -40 41 -60 54 -60
40z"/>
<path d="M1050 1945 c24 -25 51 -45 59 -45 9 0 -2 18 -29 45 -24 25 -51 45
-59 45 -9 0 2 -18 29 -45z"/>
<path d="M1110 1945 c24 -25 49 -45 54 -45 6 0 -10 20 -34 45 -24 25 -49 45
-54 45 -6 0 10 -20 34 -45z"/>
<path d="M1270 1945 c24 -25 49 -45 54 -45 6 0 -10 20 -34 45 -24 25 -49 45
-54 45 -6 0 10 -20 34 -45z"/>
<path d="M1322 1943 c26 -26 51 -44 54 -40 10 10 -66 87 -85 87 -10 0 3 -19
31 -47z"/>
<path d="M1600 1945 c24 -25 49 -45 54 -45 6 0 -10 20 -34 45 -24 25 -49 45
-54 45 -6 0 10 -20 34 -45z"/>
<path d="M1652 1943 c26 -26 50 -44 53 -41 10 9 -65 88 -84 88 -10 0 1 -16 31
-47z"/>
<path d="M1702 1943 c26 -26 51 -44 54 -40 10 10 -66 87 -85 87 -10 0 3 -19
31 -47z"/>
<path d="M2110 1945 c24 -25 49 -45 54 -45 6 0 -10 20 -34 45 -24 25 -49 45
-54 45 -6 0 10 -20 34 -45z"/>
<path d="M2162 1943 c26 -26 51 -44 54 -40 10 10 -66 87 -85 87 -10 0 3 -19
31 -47z"/>
<path d="M2210 1945 c24 -25 51 -45 59 -45 9 0 -2 18 -29 45 -24 25 -51 45
-59 45 -9 0 2 -18 29 -45z"/>
<path d="M2267 1945 c21 -24 45 -44 53 -45 8 0 -5 20 -30 45 -57 58 -73 58
-23 0z"/>
<path d="M2680 1945 c24 -25 49 -45 54 -45 6 0 -10 20 -34 45 -24 25 -49 45
-54 45 -6 0 10 -20 34 -45z"/>
<path d="M3040 1945 c24 -25 51 -45 59 -45 9 0 -2 18 -29 45 -24 25 -51 45
-59 45 -9 0 2 -18 29 -45z"/>
<path d="M3100 1945 c24 -25 49 -45 54 -45 6 0 -10 20 -34 45 -24 25 -49 45
-54 45 -6 0 10 -20 34 -45z"/>
<path d="M3260 1945 c24 -25 49 -45 54 -45 6 0 -10 20 -34 45 -24 25 -49 45
-54 45 -6 0 10 -20 34 -45z"/>
<path d="M3312 1943 c26 -26 51 -44 54 -40 10 10 -66 87 -85 87 -10 0 3 -19
31 -47z"/>
<path d="M3572 1943 c26 -26 51 -44 54 -40 10 10 -66 87 -85 87 -10 0 3 -19
31 -47z"/>
<path d="M3620 1945 c24 -25 51 -45 59 -45 9 0 -2 18 -29 45 -24 25 -51 45
-59 45 -9 0 2 -18 29 -45z"/>
<path d="M3680 1945 c24 -25 49 -45 54 -45 6 0 -10 20 -34 45 -24 25 -49 45
-54 45 -6 0 10 -20 34 -45z"/>
<path d="M3732 1943 c26 -26 51 -44 54 -40 10 10 -66 87 -85 87 -10 0 3 -19
31 -47z"/>
<path d="M4380 1982 c0 -14 75 -82 90 -82 8 0 -6 20 -30 45 -42 43 -60 54 -60
37z"/>
<path d="M4470 1945 c24 -25 48 -45 53 -45 4 0 -9 20 -30 45 -20 25 -44 45
-52 45 -9 0 3 -18 29 -45z"/>
<path d="M4762 1943 c26 -26 51 -44 54 -40 10 10 -66 87 -85 87 -10 0 3 -19
31 -47z"/>
<path d="M4780 1982 c0 -14 75 -82 90 -82 8 0 -6 20 -30 45 -42 43 -60 54 -60
37z"/>
<path d="M4922 1943 c26 -26 51 -44 54 -40 10 10 -66 87 -85 87 -10 0 3 -19
31 -47z"/>
<path d="M4951 1973 c33 -44 64 -73 78 -73 9 0 -2 17 -29 45 -43 44 -75 62
-49 28z"/>
<path d="M5030 1945 c24 -25 48 -45 53 -45 4 0 -9 20 -30 45 -20 25 -44 45
-52 45 -9 0 3 -18 29 -45z"/>
<path d="M5312 1943 c26 -26 51 -44 54 -40 10 10 -66 87 -85 87 -10 0 3 -19
31 -47z"/>
<path d="M5360 1945 c24 -25 51 -45 59 -45 9 0 -2 18 -29 45 -24 25 -51 45
-59 45 -9 0 2 -18 29 -45z"/>
<path d="M5416 1946 c22 -24 46 -45 54 -45 8 -1 -6 19 -30 44 -57 58 -75 59
-24 1z"/>
<path d="M5472 1943 c26 -26 51 -44 54 -40 10 10 -66 87 -85 87 -10 0 3 -19
31 -47z"/>
<path d="M5852 1943 c26 -26 51 -44 54 -40 10 10 -66 87 -85 87 -10 0 3 -19
31 -47z"/>
<path d="M5900 1945 c24 -25 51 -45 59 -45 9 0 -2 18 -29 45 -24 25 -51 45
-59 45 -9 0 2 -18 29 -45z"/>
<path d="M6190 1945 c24 -25 49 -45 54 -45 6 0 -10 20 -34 45 -24 25 -49 45
-54 45 -6 0 10 -20 34 -45z"/>
<path d="M6242 1943 c26 -26 51 -44 54 -40 10 10 -66 87 -85 87 -10 0 3 -19
31 -47z"/>
<path d="M6402 1943 c26 -26 51 -44 54 -40 10 10 -66 87 -85 87 -10 0 3 -19
31 -47z"/>
<path d="M6450 1945 c24 -25 51 -45 59 -45 9 0 -2 18 -29 45 -24 25 -51 45
-59 45 -9 0 2 -18 29 -45z"/>
<path d="M2633 1934 c27 -26 51 -43 54 -40 10 9 -68 86 -87 86 -9 0 4 -19 33
-46z"/>
<path d="M3894 1901 c-2 -2 -4 -15 -4 -28 l0 -23 201 0 200 0 -3 28 -3 27
-193 0 c-107 0 -196 -2 -198 -4z"/>
<path d="M4310 1900 c0 -9 20 -36 45 -60 25 -24 45 -40 45 -34 0 17 -89 110
-90 94z"/>
<path d="M4310 1839 c0 -19 77 -95 87 -85 4 3 -14 28 -40 54 -28 28 -47 41
-47 31z"/>
<path d="M3930 1785 c24 -25 49 -45 54 -45 6 0 -10 20 -34 45 -24 25 -49 45
-54 45 -6 0 10 -20 34 -45z"/>
<path d="M3983 1784 c27 -26 51 -43 54 -40 10 9 -68 86 -87 86 -9 0 4 -19 33
-46z"/>
<path d="M4033 1784 c27 -26 51 -43 54 -40 10 9 -68 86 -87 86 -9 0 4 -19 33
-46z"/>
<path d="M4090 1785 c24 -25 49 -45 54 -45 6 0 -10 20 -34 45 -24 25 -49 45
-54 45 -6 0 10 -20 34 -45z"/>
<path d="M4143 1784 c27 -26 51 -43 54 -40 10 9 -68 86 -87 86 -9 0 4 -19 33
-46z"/>
<path d="M4193 1784 c27 -26 51 -43 54 -40 10 9 -68 86 -87 86 -9 0 4 -19 33
-46z"/>
<path d="M4252 1783 c26 -26 51 -44 54 -40 10 10 -66 87 -85 87 -10 0 3 -19
31 -47z"/>
<path d="M4302 1783 c26 -26 51 -44 54 -40 10 10 -66 87 -85 87 -10 0 3 -19
31 -47z"/>
<path d="M1632 1640 c2 -5 100 -178 218 -383 l215 -375 470 -271 470 -271 555
0 555 0 459 265 c253 145 467 272 476 282 17 17 440 747 440 758 0 3 -69 5
-154 5 l-154 0 -164 -284 -163 -285 -408 -235 -409 -236 -478 0 -478 0 -409
236 -408 235 -164 285 -163 284 -155 0 c-94 0 -153 -4 -151 -10z"/>
<path d="M2357 1466 c101 -175 108 -185 162 -217 31 -18 187 -109 346 -201
l290 -168 405 0 405 0 344 199 343 199 40 68 c22 38 71 122 108 187 l69 117
-158 0 -157 0 -49 -86 -50 -87 -284 -163 -283 -164 -328 0 -328 0 -283 164
-284 164 -50 86 -49 86 -158 0 -157 0 106 -184z"/>
</g>
</svg>
